# xmcd CD database file
#
# Track frame offsets:
#	150
#	15180
#	53156
#	68765
#	108855
#	134441
#	161568
#	184637
#
# Disc length: 2762 seconds
#
# Revision: 0
# Processed by: cddbd v1.5.2PL0 Copyright (c) Steve Scherf et al.
# Submitted via: CDex 1.77
#
DISCID=5c0ac808
DTITLE=Wolfgang Reisinger - Refusion
DYEAR=2004
DGENRE=Jazz
TTITLE0=Play Up
TTITLE1=Urgence
TTITLE2=Silence
TTITLE3=For Dave
TTITLE4=Off and Off
TTITLE5=Refusion
TTITLE6=Pastorale
TTITLE7=Don't Touch it
EXTD=YEAR: 2004
EXTT0=
EXTT1=
EXTT2=
EXTT3=
EXTT4=
EXTT5=
EXTT6=
EXTT7=
PLAYORDER=
